<svg xmlns="http://www.w3.org/2000/svg" viewBox="0 0 1200 260">
  <defs>
    <linearGradient id="bg" x1="0" y1="0" x2="1" y2="1">
      <stop offset="0%" stop-color="#0b1020"/>
      <stop offset="55%" stop-color="#0a1a2a"/>
      <stop offset="100%" stop-color="#070a12"/>
    </linearGradient>

    <linearGradient id="shine" x1="0" y1="0" x2="1" y2="1">
      <stop offset="0%" stop-color="#ffffff" stop-opacity="0.0"/>
      <stop offset="45%" stop-color="#ffffff" stop-opacity="0.18"/>
      <stop offset="55%" stop-color="#ffffff" stop-opacity="0.0"/>
      <stop offset="100%" stop-color="#ffffff" stop-opacity="0.0"/>
    </linearGradient>

    <filter id="softGlow" x="-40%" y="-40%" width="180%" height="180%">
      <feGaussianBlur stdDeviation="10" result="blur"/>
      <feColorMatrix in="blur" type="matrix"
        values="1 0 0 0 0
                0 1 0 0 0
                0 0 1 0 0
                0 0 0 .55 0" result="glow"/>
      <feMerge>
        <feMergeNode in="glow"/>
        <feMergeNode in="SourceGraphic"/>
      </feMerge>
    </filter>

    <filter id="shadow" x="-30%" y="-30%" width="160%" height="160%">
      <feDropShadow dx="0" dy="18" stdDeviation="14" flood-color="#000000" flood-opacity="0.55"/>
    </filter>

    <mask id="shineMask">
      <rect width="1200" height="260" fill="black"/>
      <g transform="skewX(-18)">
        <rect id="sweep" x="-500" y="-80" width="320" height="520" fill="white" opacity="1">
          <animate attributeName="x" from="-500" to="1500" dur="4.6s" repeatCount="indefinite"/>
        </rect>
      </g>
    </mask>
  </defs>

  <rect width="1200" height="260" rx="26" fill="url(#bg)"/>

  <g opacity="0.12">
    <path d="M0 70H1200M0 130H1200M0 190H1200" stroke="#8fb3ff"/>
    <path d="M120 0V260M260 0V260M400 0V260M540 0V260M680 0V260M820 0V260M960 0V260M1100 0V260" stroke="#8fb3ff"/>
  </g>

  <g filter="url(#shadow)">
    <g id="card">
      <rect x="90" y="50" width="1020" height="160" rx="22" fill="#0f172a" stroke="#2b3a66" stroke-opacity="0.9"/>
      <rect x="96" y="56" width="1008" height="148" rx="18" fill="none" stroke="#7aa2ff" stroke-opacity="0.28"/>
      <path d="M112 204H1088" stroke="#000" stroke-opacity="0.25"/>

      <circle cx="220" cy="90" r="42" fill="#4f8cff" opacity="0.35" filter="url(#softGlow)"/>
      <circle cx="980" cy="170" r="58" fill="#7c3aed" opacity="0.22" filter="url(#softGlow)"/>

      <rect x="90" y="50" width="1020" height="160" rx="22" fill="url(#shine)" mask="url(#shineMask)"/>

      <text x="600" y="118" text-anchor="middle"
            font-family="ui-monospace, SFMono-Regular, Menlo, Monaco, Consolas, 'Liberation Mono', 'Courier New', monospace"
            font-size="44" fill="#eaf0ff" letter-spacing="2">
        OUSSAMA TARIGHT
      </text>

      <text x="600" y="154" text-anchor="middle"
            font-family="ui-monospace, SFMono-Regular, Menlo, Monaco, Consolas, 'Liberation Mono', 'Courier New', monospace"
            font-size="16" fill="#b7c6ff" opacity="0.95" letter-spacing="1">
        FULL-STACK DEVELOPER · L2 COMPUTER SCIENCE @ USTHB
      </text>

      <animateTransform attributeName="transform" type="translate"
        values="0 0; 0 -6; 0 0" dur="3.2s" repeatCount="indefinite"/>
    </g>
  </g>

  <g fill="#9bb7ff" opacity="0.35">
    <circle cx="80" cy="38" r="2"/>
    <circle cx="1140" cy="34" r="2"/>
    <circle cx="1160" cy="220" r="2"/>
    <circle cx="60" cy="220" r="2"/>
  </g>
</svg>
